<svg xmlns="http://www.w3.org/2000/svg" width="64.206" height="64.206" viewBox="0 0 64.206 64.206">
  <g id="Icon_3" data-name="Icon 3" transform="translate(-1202 -2549)">
    <path id="Path_16474" data-name="Path 16474" d="M63.866,26.244a6.228,6.228,0,0,0,.34-2.044,6.454,6.454,0,0,0-2.822-5.3c-5.76-3.991-5-2.988-7.167-9.478a6.79,6.79,0,0,0-6.485-4.54h-.019c-7.1.024-5.867.4-11.594-3.622a7.033,7.033,0,0,0-8.034,0C22.317,5.313,23.574,4.9,16.49,4.88h-.019A6.785,6.785,0,0,0,9.992,9.42C7.82,15.926,8.563,14.92,2.828,18.9A6.459,6.459,0,0,0,0,24.206a6.352,6.352,0,0,0,.34,2.039c2.223,6.5,2.218,5.249,0,11.718A6.34,6.34,0,0,0,0,40a6.462,6.462,0,0,0,2.828,5.305c5.741,3.986,5,2.978,7.167,9.478a6.778,6.778,0,0,0,6.479,4.54h.019c7.1-.024,5.867-.407,11.594,3.62a7.027,7.027,0,0,0,8.034,0c5.728-4.024,4.492-3.644,11.594-3.62h.019a6.8,6.8,0,0,0,6.485-4.54c2.17-6.493,1.4-5.49,7.167-9.478A6.475,6.475,0,0,0,64.206,40a6.224,6.224,0,0,0-.34-2.041C61.643,31.466,61.654,32.71,63.866,26.244ZM32.1,54.842A22.74,22.74,0,1,1,54.842,32.1,22.741,22.741,0,0,1,32.1,54.842ZM28.759,42.691l-10.032-9.73,4.144-4.141,5.888,5.586L41.335,21.514l4.144,4.141Z" transform="translate(1202 2549)" fill="#fff"/>
  </g>
</svg>
